<svg width="28" height="16" viewBox="0 0 28 16" fill="none" xmlns="http://www.w3.org/2000/svg">
<path d="M20.4435 11.9537C19.8006 11.9537 19.2777 11.4229 19.2777 10.7708C19.2777 10.1188 19.8006 9.58839 20.4435 9.58839C21.0865 9.58839 21.6094 10.1188 21.6094 10.7708C21.6094 11.4229 21.0865 11.9537 20.4435 11.9537ZM7.55645 11.9537C6.91352 11.9537 6.39058 11.4229 6.39058 10.7708C6.39058 10.1188 6.91352 9.58839 7.55645 9.58839C8.19936 9.58839 8.72233 10.1188 8.72233 10.7708C8.72233 11.4229 8.19936 11.9537 7.55645 11.9537ZM20.8617 4.83052L23.1919 0.737388C23.3255 0.502123 23.246 0.201616 23.0145 0.0657533C22.7829 -0.0697251 22.4862 0.0108709 22.3522 0.245751L19.9929 4.3907C18.1886 3.55557 16.1622 3.09041 14 3.09041C11.8378 3.09041 9.81139 3.55557 8.00713 4.3907L5.64776 0.245751C5.5138 0.0108709 5.21713 -0.0697251 4.98554 0.0657533C4.75395 0.201616 4.67411 0.502123 4.80807 0.737388L7.13829 4.83052C3.137 7.0377 0.400351 11.1462 0 16H28C27.5993 11.1462 24.8626 7.0377 20.8617 4.83052Z" fill="white"/>
</svg>
