<svg width="25" height="30" viewBox="0 0 25 30" fill="none" xmlns="http://www.w3.org/2000/svg">
<path d="M23.2364 10.227C23.0654 10.362 20.0462 12.093 20.0462 15.942C20.0462 20.394 23.888 21.969 24.0029 22.008C23.9853 22.104 23.3926 24.165 21.9774 26.265C20.7155 28.113 19.3975 29.958 17.3926 29.958C15.3877 29.958 14.8717 28.773 12.5572 28.773C10.3017 28.773 9.49975 29.997 7.66585 29.997C5.83194 29.997 4.55233 28.287 3.08108 26.187C1.3769 23.721 0 19.89 0 16.254C0 10.422 3.72678 7.329 7.39459 7.329C9.34349 7.329 10.9681 8.631 12.1916 8.631C13.3563 8.631 15.1725 7.251 17.3897 7.251C18.23 7.251 21.2491 7.329 23.2364 10.227ZM16.3371 4.782C17.2541 3.675 17.9027 2.139 17.9027 0.603C17.9027 0.39 17.885 0.174 17.8467 0C16.3548 0.057 14.5799 1.011 13.5096 2.274C12.6693 3.246 11.885 4.782 11.885 6.339C11.885 6.573 11.9233 6.807 11.941 6.882C12.0354 6.9 12.1887 6.921 12.342 6.921C13.6806 6.921 15.3641 6.009 16.3371 4.782Z" fill="white"/>
</svg>
