<svg width="30" height="23" viewBox="0 0 30 23" fill="none" xmlns="http://www.w3.org/2000/svg">
<path fill-rule="evenodd" clip-rule="evenodd" d="M29.7332 17.6033C29.1472 18.3377 27.7115 18.8616 27.7115 18.8616L17.031 22.6724V19.862L24.8911 17.0801C25.7831 16.7627 25.92 16.3139 25.195 16.0783C24.4713 15.8421 23.161 15.9098 22.2683 16.2286L17.031 18.0609V15.1443L17.3329 15.0427C17.3329 15.0427 18.8463 14.5107 20.9743 14.2765C23.1024 14.0437 25.7081 14.3083 27.7537 15.0786C30.0589 15.8022 30.3185 16.8689 29.7332 17.6033ZM18.0477 12.8179V5.63087C18.0477 4.78682 17.8909 4.00977 17.0937 3.78979C16.4831 3.59553 16.1043 4.15868 16.1043 5.00206V23L11.2179 21.4594V0C13.2955 0.383108 16.3223 1.28876 17.9495 1.83364C22.0877 3.24491 23.4908 5.00138 23.4908 8.95903C23.4908 12.8165 21.0936 14.2785 18.0477 12.8179ZM2.25182 19.5683C-0.114728 18.9063 -0.508585 17.5268 0.570092 16.7322C1.567 15.9985 3.26235 15.4461 3.26235 15.4461L10.2686 12.9715V15.7927L5.22687 17.5851C4.33626 17.9025 4.1993 18.3519 4.92296 18.5875C5.6473 18.823 6.95834 18.756 7.85031 18.4379L10.2686 17.5661V20.0901C10.1153 20.1172 9.94429 20.1443 9.7862 20.1707C7.36719 20.5633 4.79076 20.3995 2.25182 19.5683Z" fill="white"/>
</svg>
